<svg xmlns="http://www.w3.org/2000/svg" viewBox="0 0 384 384">
  <path fill="#9daab9" d="M353 252c-23 0-46-4-68-11-11-4-24-1-31 7l-43 32c-50-27-81-57-107-107l31-42c9-8 12-20 8-32-7-22-11-45-11-68 0-17-14-31-31-31H31C14 0 0 14 0 31c0 195 158 353 353 353 17 0 31-14 31-31v-70c0-17-14-31-31-31zm10 101c0 5-5 10-10 10A332 332 0 0121 31c0-5 5-10 10-10h70c6 0 10 5 10 10 0 26 4 51 12 75 1 3 0 7-4 11l-36 48c-3 4-3 8-1 12 30 59 66 95 125 125 4 2 8 2 12-1l49-37c3-3 7-4 10-3 24 8 49 12 75 12 5 0 10 5 10 10v70z"/>
</svg>
